<svg width="44" height="49" viewBox="0 0 44 49" fill="none" xmlns="http://www.w3.org/2000/svg">
<path d="M41.2022 20.0387C40.8583 20.0387 40.58 19.7584 40.58 19.412V14.1746C40.58 13.5639 40.2538 12.9961 39.7273 12.6907L22.7798 2.8356C22.5175 2.68204 22.225 2.60347 21.9307 2.60347C21.6364 2.60347 21.3421 2.68204 21.0815 2.83203L4.1341 12.6907C3.60759 12.9943 3.28141 13.5621 3.28141 14.1746V33.8848C3.28141 34.4955 3.60759 35.0669 4.13055 35.3705L21.0798 45.2256C21.6027 45.5327 22.2569 45.5327 22.7798 45.2256L39.7273 35.3705C40.2538 35.0669 40.58 34.4955 40.58 33.8848V27.6457C40.58 26.9261 40.0003 26.3422 39.2859 26.3422H28.7682C28.0538 26.3422 27.4741 25.7582 27.4741 25.0386V24.4958C27.4741 23.7761 28.0538 23.1922 28.7682 23.1922H41.8759C42.5903 23.1922 43.17 23.7761 43.17 24.4958V33.8866C43.17 35.4259 42.3474 36.8615 41.0214 37.6312L24.0739 47.4898C23.4145 47.872 22.6699 48.0666 21.9289 48.0666C21.1879 48.0666 20.4434 47.872 19.7839 47.4898L2.83645 37.6312C1.51043 36.8633 0.687881 35.4276 0.687881 33.8866V14.1764C0.687881 12.6371 1.51043 11.2033 2.83645 10.4318L19.7857 0.576733C21.1081 -0.191105 22.7515 -0.191105 24.0757 0.576733L41.0232 10.4318C42.3492 11.2033 43.1717 12.6354 43.1717 14.1764V19.4138C43.1717 19.7602 42.8934 20.0405 42.5495 20.0405H41.204L41.2022 20.0387Z" fill="url(#paint0_linear_2833_8595)"/>
<path d="M23.4925 23.9869V25.9565C23.4925 28.1368 25.2475 29.9046 27.412 29.9046H31.3759C31.929 29.9046 32.3066 30.4599 32.1187 30.9831C31.9609 31.4206 31.7109 31.8117 31.3901 32.1349C30.8228 32.7063 30.0428 33.0563 29.1794 33.0563H23.4925C21.7676 33.0563 20.3671 31.6456 20.3671 29.9046V20.0405H20.36C20.36 19.1727 20.711 18.3852 21.2748 17.8138C21.8421 17.2424 22.6221 16.8924 23.4889 16.8924H35.6393C36.0754 16.8924 36.43 16.5353 36.43 16.096C36.43 15.7889 36.2651 15.5067 36.0027 15.3532L22.3562 7.41765C22.2214 7.34265 22.0761 7.30158 21.9289 7.30158C21.7818 7.30158 21.6364 7.34265 21.5017 7.41765L7.85509 15.3532C7.59272 15.5067 7.42786 15.7889 7.42786 16.096V31.9724C7.42786 32.2759 7.59272 32.5617 7.85509 32.7117L12.1575 35.2134C12.684 35.5205 13.3435 35.1366 13.3435 34.5241V19.2191C13.3435 17.8585 14.2015 16.6978 15.4017 16.2567C15.9211 16.0656 16.4724 16.4478 16.4724 17.0031V37.2615C16.4724 37.5455 16.6231 37.8097 16.8677 37.9508L21.5052 40.6472C21.7676 40.8007 22.0902 40.8007 22.3544 40.6472L36.001 32.7117C36.2633 32.5617 36.4282 32.2759 36.4282 31.9724V27.7671C36.4282 27.3279 36.7828 26.9707 37.2188 26.9707H38.7665C39.2025 26.9707 39.5571 27.3279 39.5571 27.7671V31.9724C39.5571 33.3991 38.7913 34.7295 37.5645 35.4437L23.9179 43.3792C23.3046 43.7364 22.6167 43.9149 21.9289 43.9149C21.2411 43.9149 20.5533 43.7364 19.9399 43.3792L6.2933 35.4437C5.06302 34.7295 4.30074 33.3991 4.30074 31.9724V16.096C4.30074 14.6692 5.06302 13.3389 6.2933 12.6247L19.9399 4.68914C21.1666 3.97488 22.6912 3.97488 23.9179 4.68914L37.5645 12.6247C38.7913 13.3389 39.5571 14.6692 39.5571 16.096V19.2441C39.5571 19.6834 39.2025 20.0405 38.7665 20.0405H27.4102C25.2457 20.0405 23.4907 21.8084 23.4907 23.9887L23.4925 23.9869Z" fill="url(#paint1_linear_2833_8595)"/>
<defs>
<linearGradient id="paint0_linear_2833_8595" x1="9.7732" y1="42.3185" x2="34.331" y2="5.90761" gradientUnits="userSpaceOnUse">
<stop stop-color="#522BBF"/>
<stop offset="1" stop-color="#9169FF"/>
</linearGradient>
<linearGradient id="paint1_linear_2833_8595" x1="10.9592" y1="38.5133" x2="33.0576" y2="9.7617" gradientUnits="userSpaceOnUse">
<stop stop-color="#522BBF"/>
<stop offset="1" stop-color="#9169FF"/>
</linearGradient>
</defs>
</svg>
