<svg width="53" height="53" viewBox="0 0 53 53" fill="none" xmlns="http://www.w3.org/2000/svg">
<path d="M45.2363 9.31641H51.4473C52.3055 9.31641 53 8.62192 53 7.76367V1.55273C53 0.694486 52.3055 0 51.4473 0H45.2363C44.3781 0 43.6836 0.694486 43.6836 1.55273V3.10547H30.8722C30.229 1.30202 28.5217 0 26.5 0C24.4783 0 22.771 1.30202 22.1278 3.10547H9.31641V1.55273C9.31641 0.694486 8.62192 0 7.76367 0H1.55273C0.694486 0 0 0.694486 0 1.55273V7.76367C0 8.62192 0.694486 9.31641 1.55273 9.31641H7.76367C8.62192 9.31641 9.31641 8.62192 9.31641 7.76367V6.19023H14.824C8.22504 10.0053 3.70896 16.9726 3.17752 24.8438H1.55273C0.694486 24.8438 0 25.5382 0 26.3965V32.6074C0 33.4657 0.694486 34.1602 1.55273 34.1602H7.76367C8.62192 34.1602 9.31641 33.4657 9.31641 32.6074V26.3965C9.31641 25.5382 8.62192 24.8438 7.76367 24.8438H6.35441C7.05252 15.9821 13.6446 8.55743 22.3438 6.71889C23.1074 8.25133 24.6747 9.31641 26.5 9.31641C28.3253 9.31641 29.8926 8.25133 30.6562 6.71889C39.3554 8.55743 45.9475 15.9821 46.6456 24.8438H45.2363C44.3781 24.8438 43.6836 25.5382 43.6836 26.3965V32.6074C43.6836 33.4657 44.3781 34.1602 45.2363 34.1602H51.4473C52.3055 34.1602 53 33.4657 53 32.6074V26.3965C53 25.5382 52.3055 24.8438 51.4473 24.8438H49.8225C49.291 16.9726 44.775 10.026 38.176 6.21094H43.6836V7.76367C43.6836 8.62192 44.3781 9.31641 45.2363 9.31641Z" fill="white"/>
<path d="M26.5 34.2637C25.6433 34.2637 24.9473 34.9597 24.9473 35.8164C24.9473 36.6731 25.6433 37.3691 26.5 37.3691C27.3567 37.3691 28.0527 36.6731 28.0527 35.8164C28.0527 34.9597 27.3567 34.2637 26.5 34.2637Z" fill="white"/>
<path d="M40.2141 34.9551L28.0529 16.7136V31.4442C29.8564 32.0874 31.1584 33.7948 31.1584 35.8164C31.1584 38.3851 29.0688 40.4746 26.5002 40.4746C23.9316 40.4746 21.842 38.3851 21.842 35.8164C21.842 33.7948 23.144 32.0874 24.9475 31.4442V16.7136L12.7864 34.9552C12.4695 35.4314 12.4393 36.044 12.7091 36.5489C12.979 37.0539 13.5052 37.3692 14.0783 37.3692C16.647 37.3692 18.7365 39.4587 18.7365 42.0274V43.5801H34.2639V42.0274C34.2639 39.4587 36.3534 37.3692 38.9221 37.3692C39.4952 37.3692 40.0214 37.0538 40.2914 36.5488C40.5613 36.0439 40.5309 35.4313 40.2141 34.9551Z" fill="white"/>
<path d="M35.8164 46.6855H17.1836C16.3261 46.6855 15.6309 47.3808 15.6309 48.2383V51.4473C15.6309 52.3048 16.3261 53 17.1836 53H35.8164C36.6739 53 37.3691 52.3048 37.3691 51.4473V48.2383C37.3691 47.3808 36.6739 46.6855 35.8164 46.6855Z" fill="white"/>
</svg>
